<?xml version="1.0" encoding="UTF-8"?>
<svg id="Capa_1" data-name="Capa 1" xmlns="http://www.w3.org/2000/svg" viewBox="0 0 1922 712.02">
  <defs>
    <style>
      .cls-1 {
        fill: #ffed00;
      }
    </style>
  </defs>
  <g>
    <path class="cls-1" d="M470.28,382.21v-254.05h79.2v189.97h163.04v64.08h-242.25Z"/>
    <path class="cls-1" d="M733.73,382.21l121.76-254.05h113.33l122.18,254.05h-91l-21.49-47.02h-133.97l-21.91,47.02h-88.89ZM874.44,271.11h74.99l-16.43-35.64-18.54-42.85h-5.48l-18.12,42.85-16.43,35.64Z"/>
    <path class="cls-1" d="M1116.4,382.21v-254.05h107.43l51.82,105.41,27.81,65.6h5.48l26.54-65.6,49.29-105.41h107.43v254.05h-79.2v-105.03l2.95-42.47h-5.48l-16.01,42.47-42.13,89.86h-96.06l-42.13-89.86-16.01-42.47h-5.48l2.95,42.47v105.03h-79.2Z"/>
    <path class="cls-1" d="M1528.42,382.21v-254.05h156.3c66.99,0,109.12,34.5,109.12,94.79s-42.13,95.17-109.12,95.17h-77.1v64.08h-79.2ZM1607.63,192.24v61.81h68.25c27.81,0,39.18-4.93,39.18-31.09s-11.37-30.71-39.18-30.71h-68.25Z"/>
    <path class="cls-1" d="M347.24,276.73v.82c0,28.82-15.17,40.19-61.93,40.19-57.3,0-72.88-12.13-72.88-62.56s15.59-62.56,72.88-62.56c46.76,0,61.93,11.38,61.93,40.19v.82h88.47v-.82c0-67.87-56.88-108.44-151.67-108.44s-155.88,51.57-155.88,130.82,57.72,130.82,155.88,130.82,151.67-40.57,151.67-108.44v-.82h-88.47Z"/>
  </g>
  <g>
    <path class="cls-1" d="M128.16,583.86v-122.13h21.88v104.45h83.65v17.68h-105.52Z"/>
    <path class="cls-1" d="M265.08,482.69v-20.96h21.88v20.96h-21.88ZM265.08,583.86v-90.6h21.88v90.6h-21.88Z"/>
    <path class="cls-1" d="M320.37,533.55c0-25.16,18.63-42.11,49.22-42.11,21.06,0,36.86,8.57,40.51,24.43h1.22v-22.6h20.05v80.02c0,30.44-21.06,43.38-54.08,43.38-29.77,0-50.43-12.58-50.43-34.45h21.67c0,13.12,8.51,18.05,29.98,18.05,22.89,0,31.19-5.65,31.19-25.88v-22.24h-1.42c-3.65,13.67-17.22,23.51-40.1,23.51-29.98,0-47.8-16.95-47.8-42.11ZM375.26,558.71c22.28,0,34.43-8.39,34.43-24.43v-2.55c0-15.31-12.56-23.15-33.82-23.15s-33.42,6.38-33.42,24.97,12.15,25.16,32.81,25.16Z"/>
    <path class="cls-1" d="M468.84,583.86v-122.13h21.88v59.24h1.22c3.44-15.31,15.8-29.53,41.52-29.53,27.75,0,41.32,16.41,41.32,38.46v53.96h-21.67v-49.22c0-18.23-9.11-25.52-29.98-25.52-23.9,0-32.41,11.67-32.41,30.81v43.93h-21.88Z"/>
    <path class="cls-1" d="M654.57,583.86c-21.67,0-35.04-8.57-35.04-30.62v-43.57h-17.01v-16.41h17.01v-19.87h21.67v19.87h36.46v16.41h-36.46v42.47c0,11.12,5.67,14.04,18.23,14.04h18.23v17.68h-23.09Z"/>
    <path class="cls-1" d="M708.65,482.69v-20.96h21.88v20.96h-21.88ZM708.65,583.86v-90.6h21.88v90.6h-21.88Z"/>
    <path class="cls-1" d="M768,583.86v-90.6h20.05v28.07h1.42c3.04-15.31,16.41-29.9,41.93-29.9,27.95,0,41.72,16.95,41.72,37.92v54.5h-21.87v-49.22c0-16.95-8.51-25.52-29.37-25.52-22.08,0-32,10.21-32,29.89v44.84h-21.88Z"/>
    <path class="cls-1" d="M905.73,533.55c0-25.16,18.63-42.11,49.22-42.11,21.06,0,36.86,8.57,40.51,24.43h1.22v-22.6h20.05v80.02c0,30.44-21.06,43.38-54.08,43.38-29.77,0-50.43-12.58-50.43-34.45h21.67c0,13.12,8.51,18.05,29.98,18.05,22.89,0,31.19-5.65,31.19-25.88v-22.24h-1.42c-3.65,13.67-17.22,23.51-40.1,23.51-29.98,0-47.8-16.95-47.8-42.11ZM960.62,558.71c22.28,0,34.43-8.39,34.43-24.43v-2.55c0-15.31-12.56-23.15-33.82-23.15s-33.42,6.38-33.42,24.97,12.15,25.16,32.81,25.16Z"/>
    <path class="cls-1" d="M1109.67,583.86v-122.13h70.48c30.79,0,49.82,13.12,49.82,35.91,0,20.23-14.79,32.63-40.31,33.91v1.28c10.53,2.55,15.39,8.02,20.25,15.68l22.68,35.36h-25.12l-21.67-33.72c-6.08-9.66-12.36-13.67-29.37-13.67h-24.91v47.39h-21.88ZM1131.54,521.34h48.41c18.23,0,27.34-5.65,27.34-20.96s-9.11-20.96-27.34-20.96h-48.41v41.93Z"/>
    <path class="cls-1" d="M1258.95,538.66c0-28.25,21.47-47.21,54.28-47.21s52.46,15.49,52.46,43.02c0,3.28-.2,5.83-.81,8.57h-85.47c.81,17.5,10.33,26.8,33.62,26.8,21.06,0,29.77-6.2,29.77-16.95v-1.46h21.87v1.64c0,19.32-21.06,32.63-51.04,32.63-33.01,0-54.69-16.77-54.69-47.03ZM1279.61,532.09h65.42v-.36c0-16.77-10.74-24.79-32.2-24.79s-32,8.93-33.22,25.16Z"/>
    <path class="cls-1" d="M1399.31,583.86v-90.6h20.05v28.07h1.42c3.04-15.31,16.41-29.9,41.93-29.9,27.95,0,41.72,16.95,41.72,37.92v54.5h-21.87v-49.22c0-16.95-8.51-25.52-29.37-25.52-22.08,0-32,10.21-32,29.89v44.84h-21.88Z"/>
    <path class="cls-1" d="M1584.03,583.86c-21.67,0-35.04-8.57-35.04-30.62v-43.57h-17.01v-16.41h17.01v-19.87h21.67v19.87h36.46v16.41h-36.46v42.47c0,11.12,5.67,14.04,18.23,14.04h18.23v17.68h-23.09Z"/>
    <path class="cls-1" d="M1633.65,561.99c0-14.04,12.56-21.33,32.41-23.33l45.77-4.37v-5.29c0-14.95-7.29-20.23-26.53-20.23s-27.75,5.47-27.75,18.78v.73h-21.67v-.73c0-20.6,19.04-36.09,51.04-36.09s46.38,15.68,46.38,37.37v55.05h-20.05v-22.6h-1.42c-5.27,15.31-21.27,24.43-44.15,24.43-20.86,0-34.03-8.75-34.03-23.7ZM1673.55,571.47c22.89,0,38.28-7.66,38.28-25.52l-39.5,4.01c-11.34,1.28-16.81,3.65-16.81,10.75s5.47,10.76,18.03,10.76Z"/>
    <path class="cls-1" d="M1769.96,583.86v-122.13h21.88v122.13h-21.88Z"/>
  </g>
</svg>