<?xml version="1.0" encoding="UTF-8"?>
<svg id="Capa_1" data-name="Capa 1" xmlns="http://www.w3.org/2000/svg" viewBox="0 0 1922 506.58">
  <defs>
    <style>
      .cls-1 {
        fill: #ffed00;
      }
    </style>
  </defs>
  <path class="cls-1" d="M470.28,382.21v-254.05h79.2v189.97h163.04v64.08h-242.25Z"/>
  <path class="cls-1" d="M733.73,382.21l121.76-254.05h113.33l122.18,254.05h-91l-21.49-47.02h-133.97l-21.91,47.02h-88.89ZM874.44,271.11h74.99l-16.43-35.64-18.54-42.85h-5.48l-18.12,42.85-16.43,35.64Z"/>
  <path class="cls-1" d="M1116.4,382.21v-254.05h107.43l51.82,105.41,27.81,65.6h5.48l26.54-65.6,49.29-105.41h107.43v254.05h-79.2v-105.03l2.95-42.47h-5.48l-16.01,42.47-42.13,89.86h-96.06l-42.13-89.86-16.01-42.47h-5.48l2.95,42.47v105.03h-79.2Z"/>
  <path class="cls-1" d="M1528.42,382.21v-254.05h156.3c66.99,0,109.12,34.5,109.12,94.79s-42.13,95.17-109.12,95.17h-77.1v64.08h-79.2ZM1607.63,192.24v61.81h68.25c27.81,0,39.18-4.93,39.18-31.09s-11.37-30.71-39.18-30.71h-68.25Z"/>
  <path class="cls-1" d="M347.24,276.73v.82c0,28.82-15.17,40.19-61.93,40.19-57.3,0-72.88-12.13-72.88-62.56s15.59-62.56,72.88-62.56c46.76,0,61.93,11.38,61.93,40.19v.82h88.47v-.82c0-67.87-56.88-108.44-151.67-108.44s-155.88,51.57-155.88,130.82,57.72,130.82,155.88,130.82,151.67-40.57,151.67-108.44v-.82h-88.47Z"/>
</svg>