<?xml version="1.0" encoding="UTF-8"?>
<svg id="Capa_1" data-name="Capa 1" xmlns="http://www.w3.org/2000/svg" viewBox="0 0 5110.59 506.58">
  <defs>
    <style>
      .cls-1 {
        fill: none;
      }

      .cls-2 {
        fill: #ffed00;
      }
    </style>
  </defs>
  <rect class="cls-1" width="3466.91" height="506.58"/>
  <g>
    <g>
      <path class="cls-2" d="M467.02,382.21v-254.05h79.2v189.97h163.04v64.08h-242.25Z"/>
      <path class="cls-2" d="M730.46,382.21l121.76-254.05h113.33l122.18,254.05h-91l-21.49-47.02h-133.97l-21.91,47.02h-88.89ZM871.18,271.11h74.99l-16.43-35.64-18.54-42.85h-5.48l-18.12,42.85-16.43,35.64Z"/>
      <path class="cls-2" d="M1113.14,382.21v-254.05h107.43l51.82,105.41,27.81,65.6h5.48l26.54-65.6,49.29-105.41h107.43v254.05h-79.2v-105.03l2.95-42.47h-5.48l-16.01,42.47-42.13,89.86h-96.06l-42.13-89.86-16.01-42.47h-5.48l2.95,42.47v105.03h-79.2Z"/>
      <path class="cls-2" d="M1525.16,382.21v-254.05h156.3c66.99,0,109.12,34.5,109.12,94.79s-42.13,95.17-109.12,95.17h-77.1v64.08h-79.2ZM1604.36,192.24v61.81h68.25c27.81,0,39.18-4.93,39.18-31.09s-11.37-30.71-39.18-30.71h-68.25Z"/>
      <path class="cls-2" d="M343.97,276.73v.82c0,28.82-15.17,40.19-61.93,40.19-57.3,0-72.88-12.13-72.88-62.56s15.59-62.56,72.88-62.56c46.76,0,61.93,11.38,61.93,40.19v.82h88.47v-.82c0-67.87-56.88-108.44-151.67-108.44s-155.88,51.57-155.88,130.82,57.72,130.82,155.88,130.82,151.67-40.57,151.67-108.44v-.82h-88.47Z"/>
    </g>
    <g>
      <path class="cls-2" d="M1920,352.93v-223.75h40.08v191.36h153.25v32.39h-193.32Z"/>
      <path class="cls-2" d="M2170.84,167.58v-38.4h40.08v38.4h-40.08ZM2170.84,352.93v-165.98h40.08v165.98h-40.08Z"/>
      <path class="cls-2" d="M2272.14,260.76c0-46.09,34.14-77.14,90.17-77.14,38.59,0,67.53,15.7,74.21,44.75h2.23v-41.41h36.74v146.61c0,55.77-38.59,79.48-99.07,79.48-54.55,0-92.39-23.04-92.39-63.12h39.7c0,24.05,15.58,33.06,54.92,33.06,41.93,0,57.14-10.35,57.14-47.42v-40.74h-2.6c-6.68,25.05-31.54,43.08-73.47,43.08-54.92,0-87.57-31.06-87.57-77.14ZM2372.7,306.84c40.82,0,63.08-15.36,63.08-44.75v-4.68c0-28.05-23.01-42.41-61.97-42.41s-61.22,11.69-61.22,45.75,22.26,46.09,60.11,46.09Z"/>
      <path class="cls-2" d="M2544.13,352.93v-223.75h40.08v108.54h2.23c6.31-28.05,28.94-54.1,76.07-54.1,50.84,0,75.7,30.06,75.7,70.47v98.85h-39.7v-90.17c0-33.4-16.7-46.75-54.92-46.75-43.79,0-59.37,21.37-59.37,56.44v80.48h-40.08Z"/>
      <path class="cls-2" d="M2884.4,352.93c-39.7,0-64.19-15.7-64.19-56.1v-79.82h-31.17v-30.06h31.17v-36.4h39.7v36.4h66.79v30.06h-66.79v77.81c0,20.37,10.39,25.71,33.4,25.71h33.4v32.39h-42.3Z"/>
      <path class="cls-2" d="M2983.48,167.58v-38.4h40.08v38.4h-40.08ZM2983.48,352.93v-165.98h40.08v165.98h-40.08Z"/>
      <path class="cls-2" d="M3092.2,352.93v-165.98h36.74v51.43h2.6c5.57-28.05,30.06-54.77,76.81-54.77,51.21,0,76.44,31.06,76.44,69.46v99.85h-40.07v-90.17c0-31.06-15.58-46.75-53.8-46.75-40.45,0-58.63,18.7-58.63,54.77v82.15h-40.08Z"/>
      <path class="cls-2" d="M3344.53,260.76c0-46.09,34.14-77.14,90.17-77.14,38.59,0,67.53,15.7,74.21,44.75h2.23v-41.41h36.74v146.61c0,55.77-38.59,79.48-99.07,79.48-54.55,0-92.39-23.04-92.39-63.12h39.7c0,24.05,15.58,33.06,54.92,33.06,41.93,0,57.14-10.35,57.14-47.42v-40.74h-2.6c-6.68,25.05-31.54,43.08-73.47,43.08-54.92,0-87.57-31.06-87.57-77.14ZM3445.09,306.84c40.82,0,63.08-15.36,63.08-44.75v-4.68c0-28.05-23.01-42.41-61.97-42.41s-61.22,11.69-61.22,45.75,22.26,46.09,60.11,46.09Z"/>
      <path class="cls-2" d="M3718.16,352.93v-223.75h129.13c56.4,0,91.28,24.04,91.28,65.79,0,37.07-27.09,59.78-73.84,62.12v2.34c19.3,4.68,28.2,14.69,37.11,28.72l41.56,64.79h-46.01l-39.7-61.78c-11.13-17.7-22.63-25.05-53.8-25.05h-45.64v86.83h-40.08ZM3758.24,238.38h88.68c33.4,0,50.09-10.35,50.09-38.4s-16.7-38.41-50.09-38.41h-88.68v76.81Z"/>
      <path class="cls-2" d="M3991.64,270.11c0-51.76,39.33-86.49,99.44-86.49s96.11,28.39,96.11,78.81c0,6.01-.37,10.69-1.48,15.7h-156.59c1.48,32.06,18.92,49.09,61.6,49.09,38.59,0,54.55-11.35,54.55-31.06v-2.67h40.07v3.01c0,35.4-38.59,59.78-93.51,59.78-60.48,0-100.19-30.72-100.19-86.16ZM4029.49,258.09h119.85v-.67c0-30.72-19.67-45.42-59-45.42s-58.63,16.36-60.85,46.09Z"/>
      <path class="cls-2" d="M4248.79,352.93v-165.98h36.74v51.43h2.6c5.57-28.05,30.06-54.77,76.81-54.77,51.21,0,76.44,31.06,76.44,69.46v99.85h-40.07v-90.17c0-31.06-15.58-46.75-53.8-46.75-40.45,0-58.63,18.7-58.63,54.77v82.15h-40.08Z"/>
      <path class="cls-2" d="M4587.2,352.93c-39.7,0-64.19-15.7-64.19-56.1v-79.82h-31.17v-30.06h31.17v-36.4h39.7v36.4h66.79v30.06h-66.79v77.81c0,20.37,10.39,25.71,33.4,25.71h33.4v32.39h-42.3Z"/>
      <path class="cls-2" d="M4678.12,312.85c0-25.71,23.01-39.07,59.37-42.75l83.86-8.01v-9.68c0-27.38-13.36-37.07-48.61-37.07s-50.84,10.02-50.84,34.4v1.34h-39.7v-1.34c0-37.74,34.88-66.12,93.51-66.12s84.97,28.72,84.97,68.46v100.85h-36.74v-41.41h-2.6c-9.65,28.05-38.96,44.75-80.89,44.75-38.22,0-62.34-16.03-62.34-43.41ZM4751.22,330.22c41.93,0,70.13-14.03,70.13-46.75l-72.36,7.35c-20.78,2.34-30.8,6.68-30.8,19.7s10.02,19.7,33.03,19.7Z"/>
      <path class="cls-2" d="M4927.85,352.93v-223.75h40.08v223.75h-40.08Z"/>
    </g>
  </g>
</svg>