<?xml version="1.0" encoding="UTF-8"?>
<svg id="Capa_1" data-name="Capa 1" xmlns="http://www.w3.org/2000/svg" viewBox="0 0 3468.91 506.58">
  <defs>
    <style>
      .cls-1 {
        fill: #1d1d1b;
      }

      .cls-2 {
        fill: #ffed00;
      }
    </style>
  </defs>
  <g>
    <rect class="cls-2" x="2" y="0" width="3466.91" height="506.58"/>
    <g>
      <path class="cls-1" d="M469.65,382.21v-254.05h79.1v189.97h162.82v64.08h-241.92Z"/>
      <path class="cls-1" d="M732.75,382.21l121.59-254.05h113.18l122.01,254.05h-90.88l-21.46-47.02h-133.79l-21.88,47.02h-88.78ZM873.28,271.11h74.89l-16.41-35.64-18.51-42.85h-5.47l-18.09,42.85-16.41,35.64Z"/>
      <path class="cls-1" d="M1114.91,382.21v-254.05h107.29l51.75,105.41,27.77,65.6h5.47l26.51-65.6,49.23-105.41h107.29v254.05h-79.1v-105.03l2.95-42.47h-5.47l-15.99,42.47-42.07,89.86h-95.93l-42.07-89.86-15.99-42.47h-5.47l2.95,42.47v105.03h-79.1Z"/>
      <path class="cls-1" d="M1526.38,382.21v-254.05h156.09c66.9,0,108.97,34.5,108.97,94.79s-42.07,95.17-108.97,95.17h-77v64.08h-79.1ZM1605.48,192.24v61.81h68.16c27.77,0,39.13-4.93,39.13-31.09s-11.36-30.71-39.13-30.71h-68.16Z"/>
      <path class="cls-1" d="M346.77,276.73v.82c0,28.82-15.15,40.19-61.85,40.19-57.22,0-72.79-12.13-72.79-62.56s15.57-62.56,72.79-62.56c46.7,0,61.85,11.38,61.85,40.19v.82h88.35v-.82c0-67.87-56.8-108.44-151.47-108.44s-155.67,51.57-155.67,130.82,57.64,130.82,155.67,130.82,151.47-40.57,151.47-108.44v-.82h-88.35Z"/>
    </g>
  </g>
  <g>
    <path class="cls-1" d="M1922,382.17v-254.01h146.59c64.03,0,103.62,27.3,103.62,74.68,0,42.08-30.75,67.86-83.83,70.51v2.65c21.9,5.31,32.01,16.68,42.12,32.6l47.18,73.55h-52.23l-45.07-70.14c-12.64-20.09-25.7-28.43-61.08-28.43h-51.81v98.57h-45.49ZM1967.49,252.13h100.67c37.91,0,56.87-11.75,56.87-43.6s-18.96-43.6-56.87-43.6h-100.67v87.2Z"/>
    <path class="cls-1" d="M2232.46,288.15c0-58.76,44.65-98.19,112.89-98.19s109.1,32.22,109.1,89.47c0,6.82-.42,12.13-1.69,17.82h-177.76c1.69,36.39,21.48,55.73,69.92,55.73,43.81,0,61.92-12.89,61.92-35.26v-3.03h45.49v3.41c0,40.19-43.81,67.86-106.15,67.86-68.66,0-113.73-34.88-113.73-97.81ZM2275.43,274.5h136.06v-.76c0-34.88-22.33-51.56-66.98-51.56s-66.55,18.58-69.08,52.32Z"/>
    <path class="cls-1" d="M2524.38,382.17v-188.42h41.7v58.38h2.95c6.32-31.85,34.12-62.17,87.2-62.17,58.13,0,86.77,35.26,86.77,78.86v113.35h-45.49v-102.36c0-35.26-17.69-53.08-61.08-53.08-45.91,0-66.55,21.23-66.55,62.17v93.26h-45.49Z"/>
    <path class="cls-1" d="M2908.55,382.17c-45.07,0-72.87-17.82-72.87-63.69v-90.61h-35.38v-34.12h35.38v-41.32h45.07v41.32h75.82v34.12h-75.82v88.33c0,23.13,11.79,29.19,37.91,29.19h37.91v36.77h-48.02Z"/>
    <path class="cls-1" d="M3011.76,336.67c0-29.19,26.12-44.36,67.4-48.53l95.2-9.1v-10.99c0-31.09-15.16-42.08-55.18-42.08s-57.71,11.37-57.71,39.05v1.52h-45.07v-1.52c0-42.84,39.6-75.06,106.15-75.06s96.46,32.6,96.46,77.72v114.49h-41.7v-47.01h-2.95c-10.95,31.85-44.23,50.8-91.83,50.8-43.39,0-70.77-18.2-70.77-49.28ZM3094.74,356.39c47.6,0,79.61-15.92,79.61-53.08l-82.14,8.34c-23.59,2.65-34.96,7.58-34.96,22.37s11.37,22.37,37.49,22.37Z"/>
    <path class="cls-1" d="M3295.25,382.17v-254.01h45.49v254.01h-45.49Z"/>
  </g>
</svg>